<mxfile host="app.diagrams.net" modified="2023-11-23T02:26:11.097Z" agent="Mozilla/5.0 (Windows NT 10.0; Win64; x64) AppleWebKit/537.36 (KHTML, like Gecko) Chrome/119.0.0.0 Safari/537.36" etag="zLsk_EMbDVke9E7qQvIR" version="22.1.3" type="device">
  <diagram name="페이지-1" id="GNLKvwF2EMDzw6rjH5yZ">
    <mxGraphModel dx="772" dy="561" grid="1" gridSize="10" guides="1" tooltips="1" connect="1" arrows="1" fold="1" page="1" pageScale="1" pageWidth="827" pageHeight="1169" math="0" shadow="0">
      <root>
        <mxCell id="0" />
        <mxCell id="1" parent="0" />
        <mxCell id="o3pNUtZK9LpHBhKSgBUP-1" value="id" style="rhombus;whiteSpace=wrap;html=1;" vertex="1" parent="1">
          <mxGeometry x="360" y="200" width="80" height="80" as="geometry" />
        </mxCell>
        <mxCell id="o3pNUtZK9LpHBhKSgBUP-2" value="author" style="rounded=0;whiteSpace=wrap;html=1;" vertex="1" parent="1">
          <mxGeometry x="140" y="210" width="120" height="60" as="geometry" />
        </mxCell>
        <mxCell id="o3pNUtZK9LpHBhKSgBUP-3" value="post" style="rounded=0;whiteSpace=wrap;html=1;" vertex="1" parent="1">
          <mxGeometry x="540" y="210" width="120" height="60" as="geometry" />
        </mxCell>
        <mxCell id="o3pNUtZK9LpHBhKSgBUP-43" style="edgeStyle=orthogonalEdgeStyle;rounded=0;orthogonalLoop=1;jettySize=auto;html=1;entryX=0.25;entryY=1;entryDx=0;entryDy=0;" edge="1" parent="1" source="o3pNUtZK9LpHBhKSgBUP-4" target="o3pNUtZK9LpHBhKSgBUP-3">
          <mxGeometry relative="1" as="geometry" />
        </mxCell>
        <mxCell id="o3pNUtZK9LpHBhKSgBUP-4" value="created_time" style="ellipse;whiteSpace=wrap;html=1;" vertex="1" parent="1">
          <mxGeometry x="490" y="330" width="80" height="60" as="geometry" />
        </mxCell>
        <mxCell id="o3pNUtZK9LpHBhKSgBUP-56" value="" style="edgeStyle=orthogonalEdgeStyle;rounded=0;orthogonalLoop=1;jettySize=auto;html=1;entryX=0.25;entryY=0;entryDx=0;entryDy=0;" edge="1" parent="1" source="o3pNUtZK9LpHBhKSgBUP-12" target="o3pNUtZK9LpHBhKSgBUP-2">
          <mxGeometry relative="1" as="geometry" />
        </mxCell>
        <mxCell id="o3pNUtZK9LpHBhKSgBUP-12" value="name" style="ellipse;whiteSpace=wrap;html=1;" vertex="1" parent="1">
          <mxGeometry x="90" y="80" width="80" height="60" as="geometry" />
        </mxCell>
        <mxCell id="o3pNUtZK9LpHBhKSgBUP-51" value="" style="edgeStyle=orthogonalEdgeStyle;rounded=0;orthogonalLoop=1;jettySize=auto;html=1;entryX=0.25;entryY=1;entryDx=0;entryDy=0;" edge="1" parent="1" source="o3pNUtZK9LpHBhKSgBUP-13" target="o3pNUtZK9LpHBhKSgBUP-2">
          <mxGeometry relative="1" as="geometry" />
        </mxCell>
        <mxCell id="o3pNUtZK9LpHBhKSgBUP-13" value="address" style="ellipse;whiteSpace=wrap;html=1;" vertex="1" parent="1">
          <mxGeometry x="90" y="360" width="80" height="60" as="geometry" />
        </mxCell>
        <mxCell id="o3pNUtZK9LpHBhKSgBUP-14" value="password" style="ellipse;whiteSpace=wrap;html=1;" vertex="1" parent="1">
          <mxGeometry x="20" y="230" width="80" height="60" as="geometry" />
        </mxCell>
        <mxCell id="o3pNUtZK9LpHBhKSgBUP-49" value="" style="edgeStyle=orthogonalEdgeStyle;rounded=0;orthogonalLoop=1;jettySize=auto;html=1;entryX=0.5;entryY=1;entryDx=0;entryDy=0;" edge="1" parent="1" source="o3pNUtZK9LpHBhKSgBUP-15" target="o3pNUtZK9LpHBhKSgBUP-2">
          <mxGeometry relative="1" as="geometry" />
        </mxCell>
        <mxCell id="o3pNUtZK9LpHBhKSgBUP-15" value="age" style="ellipse;whiteSpace=wrap;html=1;" vertex="1" parent="1">
          <mxGeometry x="180" y="330" width="80" height="60" as="geometry" />
        </mxCell>
        <mxCell id="o3pNUtZK9LpHBhKSgBUP-52" value="" style="edgeStyle=orthogonalEdgeStyle;rounded=0;orthogonalLoop=1;jettySize=auto;html=1;entryX=0;entryY=0.75;entryDx=0;entryDy=0;" edge="1" parent="1" source="o3pNUtZK9LpHBhKSgBUP-16" target="o3pNUtZK9LpHBhKSgBUP-2">
          <mxGeometry relative="1" as="geometry" />
        </mxCell>
        <mxCell id="o3pNUtZK9LpHBhKSgBUP-16" value="role" style="ellipse;whiteSpace=wrap;html=1;" vertex="1" parent="1">
          <mxGeometry x="20" y="310" width="80" height="60" as="geometry" />
        </mxCell>
        <mxCell id="o3pNUtZK9LpHBhKSgBUP-55" value="" style="edgeStyle=orthogonalEdgeStyle;rounded=0;orthogonalLoop=1;jettySize=auto;html=1;entryX=0;entryY=0.25;entryDx=0;entryDy=0;" edge="1" parent="1" source="o3pNUtZK9LpHBhKSgBUP-17" target="o3pNUtZK9LpHBhKSgBUP-2">
          <mxGeometry relative="1" as="geometry" />
        </mxCell>
        <mxCell id="o3pNUtZK9LpHBhKSgBUP-17" value="email" style="ellipse;whiteSpace=wrap;html=1;" vertex="1" parent="1">
          <mxGeometry x="20" y="150" width="80" height="60" as="geometry" />
        </mxCell>
        <mxCell id="o3pNUtZK9LpHBhKSgBUP-59" value="" style="edgeStyle=orthogonalEdgeStyle;rounded=0;orthogonalLoop=1;jettySize=auto;html=1;entryX=0.5;entryY=0;entryDx=0;entryDy=0;" edge="1" parent="1" source="o3pNUtZK9LpHBhKSgBUP-19" target="o3pNUtZK9LpHBhKSgBUP-2">
          <mxGeometry relative="1" as="geometry" />
        </mxCell>
        <mxCell id="o3pNUtZK9LpHBhKSgBUP-19" value="&lt;u&gt;id&lt;/u&gt;" style="ellipse;whiteSpace=wrap;html=1;" vertex="1" parent="1">
          <mxGeometry x="200" y="80" width="80" height="60" as="geometry" />
        </mxCell>
        <mxCell id="o3pNUtZK9LpHBhKSgBUP-42" style="edgeStyle=orthogonalEdgeStyle;rounded=0;orthogonalLoop=1;jettySize=auto;html=1;entryX=0.25;entryY=0;entryDx=0;entryDy=0;" edge="1" parent="1" source="o3pNUtZK9LpHBhKSgBUP-20" target="o3pNUtZK9LpHBhKSgBUP-3">
          <mxGeometry relative="1" as="geometry" />
        </mxCell>
        <mxCell id="o3pNUtZK9LpHBhKSgBUP-20" value="&lt;u&gt;id&lt;/u&gt;" style="ellipse;whiteSpace=wrap;html=1;" vertex="1" parent="1">
          <mxGeometry x="530" y="110" width="80" height="60" as="geometry" />
        </mxCell>
        <mxCell id="o3pNUtZK9LpHBhKSgBUP-45" style="edgeStyle=orthogonalEdgeStyle;rounded=0;orthogonalLoop=1;jettySize=auto;html=1;entryX=0.5;entryY=1;entryDx=0;entryDy=0;" edge="1" parent="1" source="o3pNUtZK9LpHBhKSgBUP-21" target="o3pNUtZK9LpHBhKSgBUP-3">
          <mxGeometry relative="1" as="geometry" />
        </mxCell>
        <mxCell id="o3pNUtZK9LpHBhKSgBUP-21" value="price" style="ellipse;whiteSpace=wrap;html=1;" vertex="1" parent="1">
          <mxGeometry x="560" y="370" width="80" height="60" as="geometry" />
        </mxCell>
        <mxCell id="o3pNUtZK9LpHBhKSgBUP-46" value="" style="edgeStyle=orthogonalEdgeStyle;rounded=0;orthogonalLoop=1;jettySize=auto;html=1;entryX=0.75;entryY=1;entryDx=0;entryDy=0;" edge="1" parent="1" source="o3pNUtZK9LpHBhKSgBUP-22" target="o3pNUtZK9LpHBhKSgBUP-3">
          <mxGeometry relative="1" as="geometry" />
        </mxCell>
        <mxCell id="o3pNUtZK9LpHBhKSgBUP-22" value="author_id" style="ellipse;whiteSpace=wrap;html=1;" vertex="1" parent="1">
          <mxGeometry x="660" y="340" width="80" height="60" as="geometry" />
        </mxCell>
        <mxCell id="o3pNUtZK9LpHBhKSgBUP-48" value="" style="edgeStyle=orthogonalEdgeStyle;rounded=0;orthogonalLoop=1;jettySize=auto;html=1;entryX=0.75;entryY=0;entryDx=0;entryDy=0;" edge="1" parent="1" source="o3pNUtZK9LpHBhKSgBUP-23" target="o3pNUtZK9LpHBhKSgBUP-3">
          <mxGeometry relative="1" as="geometry">
            <mxPoint x="630" y="190" as="targetPoint" />
          </mxGeometry>
        </mxCell>
        <mxCell id="o3pNUtZK9LpHBhKSgBUP-23" value="title" style="ellipse;whiteSpace=wrap;html=1;" vertex="1" parent="1">
          <mxGeometry x="650" y="110" width="80" height="60" as="geometry" />
        </mxCell>
        <mxCell id="o3pNUtZK9LpHBhKSgBUP-47" value="" style="edgeStyle=orthogonalEdgeStyle;rounded=0;orthogonalLoop=1;jettySize=auto;html=1;" edge="1" parent="1" source="o3pNUtZK9LpHBhKSgBUP-24" target="o3pNUtZK9LpHBhKSgBUP-3">
          <mxGeometry relative="1" as="geometry" />
        </mxCell>
        <mxCell id="o3pNUtZK9LpHBhKSgBUP-24" value="contents" style="ellipse;whiteSpace=wrap;html=1;" vertex="1" parent="1">
          <mxGeometry x="700" y="210" width="80" height="60" as="geometry" />
        </mxCell>
        <mxCell id="o3pNUtZK9LpHBhKSgBUP-28" value="" style="edgeStyle=entityRelationEdgeStyle;fontSize=12;html=1;endArrow=ERzeroToMany;endFill=1;rounded=0;entryX=0;entryY=0.5;entryDx=0;entryDy=0;exitX=1;exitY=0.5;exitDx=0;exitDy=0;" edge="1" parent="1" source="o3pNUtZK9LpHBhKSgBUP-1" target="o3pNUtZK9LpHBhKSgBUP-3">
          <mxGeometry width="100" height="100" relative="1" as="geometry">
            <mxPoint x="340" y="390" as="sourcePoint" />
            <mxPoint x="440" y="290" as="targetPoint" />
          </mxGeometry>
        </mxCell>
        <mxCell id="o3pNUtZK9LpHBhKSgBUP-29" value="" style="edgeStyle=entityRelationEdgeStyle;fontSize=12;html=1;endArrow=ERzeroToOne;endFill=1;rounded=0;entryX=1;entryY=0.5;entryDx=0;entryDy=0;exitX=0;exitY=0.5;exitDx=0;exitDy=0;" edge="1" parent="1" source="o3pNUtZK9LpHBhKSgBUP-1" target="o3pNUtZK9LpHBhKSgBUP-2">
          <mxGeometry width="100" height="100" relative="1" as="geometry">
            <mxPoint x="270" y="340" as="sourcePoint" />
            <mxPoint x="450" y="240" as="targetPoint" />
          </mxGeometry>
        </mxCell>
        <mxCell id="o3pNUtZK9LpHBhKSgBUP-53" value="글쓴이 입장에서&lt;br&gt;글을 써도 되고&lt;br&gt;안써도 되고" style="text;html=1;align=center;verticalAlign=middle;resizable=0;points=[];autosize=1;strokeColor=none;fillColor=none;" vertex="1" parent="1">
          <mxGeometry x="430" y="170" width="110" height="60" as="geometry" />
        </mxCell>
        <mxCell id="o3pNUtZK9LpHBhKSgBUP-54" value="글 입장에서&lt;br&gt;글쓴이가&lt;br&gt;있거나 없거나" style="text;html=1;align=center;verticalAlign=middle;resizable=0;points=[];autosize=1;strokeColor=none;fillColor=none;" vertex="1" parent="1">
          <mxGeometry x="270" y="170" width="100" height="60" as="geometry" />
        </mxCell>
      </root>
    </mxGraphModel>
  </diagram>
</mxfile>
